<?xml version="1.0" encoding="UTF-8"?><svg id="Layer_2" xmlns="http://www.w3.org/2000/svg" viewBox="0 0 582.79 95.63"><g id="Layer_1-2"><path d="M81.19,39.58c-1.64-1.58-3.54-2.81-5.7-3.69-2.16-.87-4.55-1.31-7.17-1.31-3.12,0-5.86.71-8.24,2.13-2.38,1.42-4.25,3.39-5.62,5.9-1.37,2.51-2.05,5.44-2.05,8.77s.68,6.27,2.05,8.82c1.37,2.54,3.24,4.52,5.62,5.95,2.38,1.42,5.12,2.13,8.24,2.13,2.79,0,5.34-.49,7.67-1.48,2.32-.98,4.28-2.4,5.86-4.26l3.2,3.28c-1.91,2.24-4.32,4-7.22,5.29-2.9,1.29-6.15,1.93-9.76,1.93-4.16,0-7.83-.92-11.03-2.75-3.2-1.83-5.71-4.39-7.54-7.67-1.83-3.28-2.75-7.02-2.75-11.23s.91-8.02,2.75-11.27c1.83-3.25,4.35-5.79,7.54-7.63,3.2-1.83,6.87-2.75,11.03-2.75,3.39,0,6.46.55,9.23,1.64,2.76,1.09,5.12,2.6,7.09,4.51l-3.2,3.69Z"/><path d="M97.35,54.99c0,4.05,1.09,7.22,3.28,9.51,2.19,2.3,5.22,3.44,9.1,3.44,4.59-.11,8.19-1.72,10.78-4.84,2.6-3.12,3.9-7.16,3.9-12.14h1.97c0,4.92-.74,9.01-2.21,12.26-1.48,3.25-3.61,5.69-6.4,7.3-2.79,1.61-6.1,2.45-9.92,2.5-3.39,0-6.29-.67-8.69-2.01-2.41-1.34-4.25-3.27-5.54-5.78-1.29-2.51-1.93-5.49-1.93-8.94v-26.4h5.66v25.09ZM124.41,29.9h5.66v42.97h-5.66V29.9Z"/><path d="M142.28,12.03h5.66v60.84h-5.66V12.03Z"/><path d="M155.48,31.05h25.67v4.35h-25.67v-4.35ZM167.29,60.16c0,2.79.52,4.81,1.56,6.07,1.04,1.26,2.51,1.89,4.43,1.89,1.15-.05,2.31-.27,3.48-.66,1.18-.38,2.34-.96,3.49-1.72l1.72,4.18c-1.48.98-3.02,1.75-4.63,2.3-1.61.55-3.27.85-4.96.9-2.08,0-3.92-.42-5.54-1.27-1.61-.85-2.87-2.17-3.77-3.98-.9-1.8-1.35-4.1-1.35-6.89V20.06h5.58v40.1Z"/><path d="M191.89,54.99c0,4.05,1.09,7.22,3.28,9.51,2.19,2.3,5.22,3.44,9.1,3.44,4.59-.11,8.19-1.72,10.78-4.84,2.6-3.12,3.9-7.16,3.9-12.14h1.97c0,4.92-.74,9.01-2.21,12.26-1.48,3.25-3.61,5.69-6.4,7.3-2.79,1.61-6.1,2.45-9.92,2.5-3.39,0-6.29-.67-8.69-2.01-2.41-1.34-4.25-3.27-5.54-5.78-1.29-2.51-1.93-5.49-1.93-8.94v-26.4h5.66v25.09ZM218.95,29.9h5.66v42.97h-5.66V29.9Z"/><path d="M236.41,29.9h5.66v42.97h-5.66V29.9ZM257.73,34.9c-3.28-.05-6.1.63-8.45,2.05-2.35,1.42-4.16,3.42-5.41,5.99-1.26,2.57-1.89,5.58-1.89,9.02l-2.05-.16c0-4.7.71-8.68,2.13-11.93,1.42-3.25,3.47-5.75,6.15-7.5,2.68-1.75,5.85-2.62,9.51-2.62v5.17Z"/><path d="M294.3,48.93c-.16-3.01-.88-5.59-2.13-7.75-1.26-2.16-2.99-3.85-5.21-5.08-2.21-1.23-4.77-1.84-7.67-1.84-3.12,0-5.86.71-8.24,2.13-2.38,1.42-4.24,3.4-5.58,5.95-1.34,2.54-2.01,5.48-2.01,8.81s.7,6.48,2.09,9.1c1.39,2.62,3.32,4.66,5.78,6.11s5.28,2.17,8.45,2.17c5.58,0,10.11-1.89,13.61-5.66l3.12,3.12c-2.02,2.24-4.5,3.98-7.42,5.21-2.92,1.23-6.16,1.84-9.72,1.84-4.21,0-7.91-.92-11.11-2.75-3.2-1.83-5.71-4.39-7.54-7.67-1.83-3.28-2.75-7.02-2.75-11.23s.91-8.02,2.75-11.27c1.83-3.25,4.35-5.79,7.54-7.63,3.2-1.83,6.87-2.75,11.03-2.75,4.54,0,8.32.97,11.36,2.91s5.29,4.67,6.76,8.2c1.48,3.53,2.1,7.64,1.89,12.34h-36.9v-4.26h31.9Z"/><path d="M390.98,29.9h5.99l13.2,37.56,12.87-37.56h5.99l13.12,37.56,13.04-37.56h5.82l-15.99,42.97h-5.9l-13.04-36.41-13.04,36.41h-5.9l-16.15-42.97Z"/><path d="M467.49,13.67c1.15,0,2.08.37,2.79,1.11.71.74,1.07,1.65,1.07,2.75s-.36,2.01-1.07,2.75c-.71.74-1.64,1.11-2.79,1.11-1.04,0-1.94-.37-2.71-1.11-.77-.74-1.15-1.65-1.15-2.75s.38-2.01,1.15-2.75c.76-.74,1.67-1.11,2.71-1.11ZM464.7,29.9h5.66v42.97h-5.66V29.9Z"/><path d="M482.16,29.9h5.66v42.97h-5.66V29.9ZM503.48,34.9c-3.28-.05-6.1.63-8.45,2.05-2.35,1.42-4.16,3.42-5.41,5.99-1.26,2.57-1.89,5.58-1.89,9.02l-2.05-.16c0-4.7.71-8.68,2.13-11.93,1.42-3.25,3.47-5.75,6.15-7.5,2.68-1.75,5.85-2.62,9.51-2.62v5.17Z"/><path d="M540.05,48.93c-.16-3.01-.88-5.59-2.13-7.75-1.26-2.16-2.99-3.85-5.21-5.08-2.21-1.23-4.77-1.84-7.67-1.84-3.12,0-5.86.71-8.24,2.13-2.38,1.42-4.24,3.4-5.58,5.95-1.34,2.54-2.01,5.48-2.01,8.81s.7,6.48,2.09,9.1c1.39,2.62,3.32,4.66,5.78,6.11s5.28,2.17,8.45,2.17c5.58,0,10.11-1.89,13.61-5.66l3.12,3.12c-2.02,2.24-4.5,3.98-7.42,5.21-2.92,1.23-6.16,1.84-9.72,1.84-4.21,0-7.91-.92-11.11-2.75-3.2-1.83-5.71-4.39-7.54-7.67-1.83-3.28-2.75-7.02-2.75-11.23s.91-8.02,2.75-11.27c1.83-3.25,4.35-5.79,7.54-7.63,3.2-1.83,6.87-2.75,11.03-2.75,4.54,0,8.32.97,11.36,2.91s5.29,4.67,6.76,8.2c1.48,3.53,2.1,7.64,1.89,12.34h-36.9v-4.26h31.9Z"/><path d="M534.17,0h-147.41c-10.21,0-19.67,3.22-27.45,8.69-4.95,3.49-11.51,3.45-16.44-.07C335.26,3.2,325.95,0,315.9,0H46.65C20.89,0,0,20.89,0,46.65v2.32c0,25.77,20.89,46.65,46.65,46.65h269.25c10.06,0,19.38-3.21,27.01-8.64,4.91-3.5,11.45-3.54,16.38-.07,7.78,5.48,17.25,8.71,27.47,8.71h148.21c26.67,0,48.31-21.95,47.8-48.74C582.28,20.71,560.35,0,534.17,0ZM315.9,92.63H46.65c-24.07,0-43.65-19.58-43.65-43.65v-2.32C3,22.58,22.58,3,46.65,3h269.25c13.29,0,25.21,5.98,33.22,15.38-6.36,8.12-10.17,18.34-10.17,29.43s3.81,21.31,10.17,29.43c-8.01,9.4-19.93,15.38-33.22,15.38ZM346.51,28.14c1.85-3.77,7.26-3.59,9.02.22,2.58,5.57,4.02,11.76,4.02,18.29v2.32c0,6.53-1.44,12.72-4.02,18.29-1.77,3.81-7.17,3.99-9.02.22-2.92-5.94-4.56-12.62-4.56-19.67s1.64-13.73,4.56-19.67ZM534.98,92.63h-148.21c-13.46,0-25.55-5.98-33.77-15.4,5.99-7.85,9.56-17.64,9.56-28.25v-2.32c0-10.61-3.57-20.4-9.56-28.25,8.22-9.43,20.31-15.4,33.77-15.4h148.21c24.71,0,44.81,20.1,44.81,44.81s-20.1,44.81-44.81,44.81Z"/></g></svg>